<?xml version="1.0" encoding="utf-8"?>
<!-- Generator: Adobe Illustrator 16.0.0, SVG Export Plug-In . SVG Version: 6.00 Build 0)  -->
<!DOCTYPE svg PUBLIC "-//W3C//DTD SVG 1.1//EN" "http://www.w3.org/Graphics/SVG/1.1/DTD/svg11.dtd">
<svg version="1.1" xmlns="http://www.w3.org/2000/svg" xmlns:xlink="http://www.w3.org/1999/xlink" x="0px" y="0px"
	 width="449.759px" height="155.518px" viewBox="0 0 449.759 155.518" enable-background="new 0 0 449.759 155.518"
	 xml:space="preserve">
<g id="Background">
</g>
<g id="Guides">
</g>
<g id="Foreground">
	<g>
		<g>
			<path fill="#006399" d="M433.122,62.084c0,3.988,3.233,7.221,7.222,7.221s7.221-3.233,7.221-7.221
				c0-3.988-3.232-7.221-7.221-7.221S433.122,58.096,433.122,62.084z M431.927,62.084c0-4.648,3.768-8.416,8.416-8.416
				s8.416,3.768,8.416,8.416c0,4.648-3.768,8.416-8.416,8.416S431.927,66.732,431.927,62.084z"/>
			<path fill-rule="evenodd" clip-rule="evenodd" fill="#006399" d="M437.107,66.64c0.365-0.027,0.731-0.068,1.097-0.068
				s0.73,0.041,1.097,0.068v-4.393h0.103c0.322,0.52,0.731,1.149,0.95,1.519l1.741,2.874c0.438-0.027,0.878-0.068,1.316-0.068
				c0.453,0,0.892,0.041,1.331,0.068l-0.57-0.849c-0.878-1.273-1.785-2.532-2.59-3.846c1.36-0.274,2.282-1.123,2.282-2.463
				c0-0.931-0.438-1.547-1.272-1.958c-0.614-0.301-1.683-0.273-2.369-0.273h-3.115V66.64z M439.3,57.99
				c0.893,0,1.989-0.109,2.224,1.026c0.058,0.288,0.073,0.493,0.073,0.685c0,1.41-0.761,2.094-2.297,1.957V57.99z"/>
		</g>
		<g>
			<g>
				<path fill="#006399" d="M152.415,28.552c25.888-11.254,65.618-20.838,110.871-25.574c81.597-8.54,150.246,1.917,153.334,23.354
					c2.318,16.095-32.977,33.804-85.243,45.245c40.608-11.807,66.361-27.198,64.094-40.95c-3.506-21.26-72.645-30.552-154.43-20.756
					C207.217,13.922,176.528,20.604,152.415,28.552z"/>
			</g>
			<g>
				<path fill-rule="evenodd" clip-rule="evenodd" d="M53.677,110.072c-5.201,3.749-12.826,6.54-18.87,6.54
					c-15.012,0-20.927-10.464-17.687-25.377C19.905,78.416,29.449,64.55,45.63,64.55c6.336,0,11.855,3.314,14.438,8.023h1.365
					c1.443-3.052,2.672-6.018,4.193-8.982c-5.047-2.791-12.523-4.273-18.958-4.273c-21.25,0-41.051,10.377-45.996,33.138
					c-3.884,17.877,9.407,29.389,30.268,29.389c6.531,0,13.68-1.046,20.116-3.75l3.774-7.5L53.677,110.072z"/>
				<path fill-rule="evenodd" clip-rule="evenodd" d="M57.633,120.711c2.28-0.174,4.579-0.436,6.821-0.436
					c2.242,0,4.428,0.262,6.632,0.436l3.429-15.784c0.606-2.791,1.356-7.587,2.783-10.116c1.984-3.75,5.929-5.755,10.218-5.755
					c1.56,0,3.628,0.349,4.726,1.134l1.029-0.698c0.522-3.75,1.686-7.761,3.064-11.86c-9.553,0-14.979,5.232-18.409,11.599
					l2.349-10.813c-2.28,0.174-4.579,0.437-6.821,0.437c-2.242,0-4.427-0.263-6.631-0.437L57.633,120.711z"/>
				<path fill-rule="evenodd" clip-rule="evenodd" d="M107.706,95.421c1.199-4.622,3.89-13.865,11.006-13.865
					c5.849,0,4.425,9.243,3.421,13.865H107.706z M134.676,99.607c3.781-12.471,0.095-21.977-15.209-21.977
					c-14.134,0-24.217,8.721-26.87,20.93c-3.088,14.215,3.303,22.936,19.485,22.936c4.776,0,10.362-1.482,14.792-3.925l3.206-4.883
					l-0.999-0.785c-3.515,2.268-8.261,3.924-12.258,3.924c-10.333,0-12.27-7.237-10.026-16.22H134.676z"/>
				<path fill-rule="evenodd" clip-rule="evenodd" d="M194.104,54.434c-2.28,0.174-4.579,0.436-6.821,0.436
					s-4.427-0.262-6.631-0.436l-6.403,29.476c-1.842-4.534-6.142-6.279-11.894-6.279c-12.867,0-21.182,10.901-23.587,21.977
					c-2.444,11.249,0.021,21.889,14.448,21.889c6.434,0,12.027-3.314,15.192-8.459l-1.667,7.674
					c2.183-0.174,4.384-0.436,6.626-0.436c2.145,0,4.232,0.262,6.339,0.436L194.104,54.434z M166.096,83.3
					c7.798,0,6.383,10.552,5.285,15.61c-1.194,5.493-4.748,16.917-13.131,16.917c-7.896,0-6.21-10.9-5.111-15.958
					C154.332,94.375,157.712,83.3,166.096,83.3z"/>
				<path fill-rule="evenodd" clip-rule="evenodd" d="M187.208,120.711c2.28-0.174,4.579-0.436,6.821-0.436
					c2.242,0,4.428,0.262,6.632,0.436l9.188-42.295c-2.28,0.174-4.579,0.437-6.821,0.437c-2.242,0-4.427-0.263-6.631-0.437
					L187.208,120.711z M198.888,62.457c-0.795,3.663,1.915,6.89,6.107,6.89c4.191,0,8.48-3.14,9.295-6.89
					c0.815-3.75-2.11-6.889-6.302-6.889C203.797,55.568,199.684,58.794,198.888,62.457z"/>
				<path fill-rule="evenodd" clip-rule="evenodd" d="M235.117,83.997h8.285c0.144-2.006,0.484-3.575,1.213-5.581h-8.286
					l3.315-15.261c-5.114,2.006-9.898,3.837-14.627,5.407l-2.141,9.854h-6.628c-0.144,2.006-0.484,3.575-1.212,5.581h6.628
					l-5.076,23.372c-1.763,8.11-0.828,14.127,9.31,14.127c3.022,0,6.702-0.785,10.574-2.006l0.738-3.4
					c-9.11,2.005-8.8-1.221-7.492-7.238L235.117,83.997z"/>
				<path fill-rule="evenodd" clip-rule="evenodd" fill="#006399" d="M328.957,87.352c3.125-14.879-1.695-34.173-32.274-34.173
					c-26.717,0-45.633,15.455-49.784,34.557c-4.734,21.789,8.542,34.268,32.254,34.268
					C305.44,122.003,324.997,106.069,328.957,87.352z M294.788,58.938c16.094,0,19.444,14.207,16.754,26.589
					c-3.462,15.934-14.078,30.717-30.601,30.717c-16.095,0-19.548-13.247-16.836-25.726
					C268.777,69.017,279.873,58.938,294.788,58.938z"/>
				<path fill-rule="evenodd" clip-rule="evenodd" fill="#006399" d="M325.846,120.756c2.509-0.192,5.039-0.48,7.507-0.48
					c2.469,0,4.873,0.288,7.3,0.48l4.797-22.078c1.314-6.047,3.755-17.278,13.089-17.278c7.512,0,7.38,6.527,5.441,15.455
					l-5.194,23.901c2.51-0.192,5.04-0.48,7.508-0.48s4.873,0.288,7.299,0.48l6.112-28.125c2.502-11.52,0.759-19.294-12.762-19.294
					c-6.652,0-12.982,3.456-18.254,7.967l1.543-7.103c-2.402,0.192-4.825,0.479-7.186,0.479c-2.468,0-4.766-0.288-7.084-0.479
					L325.846,120.756z"/>
				<path fill-rule="evenodd" clip-rule="evenodd" fill="#006399" d="M400.956,92.919c1.32-5.088,4.282-15.263,12.114-15.263
					c6.438,0,4.871,10.175,3.766,15.263H400.956z M430.641,97.526c4.163-13.728,0.105-24.19-16.74-24.19
					c-15.558,0-26.656,9.599-29.576,23.038c-3.399,15.646,3.635,25.245,21.446,25.245c5.258,0,11.405-1.632,16.281-4.319
					l3.528-5.376l-1.099-0.863c-3.869,2.496-9.094,4.319-13.493,4.319c-11.373,0-13.505-7.967-11.034-17.854H430.641z"/>
			</g>
			<g>
				<path fill-rule="evenodd" clip-rule="evenodd" d="M101.035,155.414h4.935c2.374,0.034,5.238,0.034,7.549-1.38
					c2.27-1.381,3.762-3.382,4.238-5.832c0.777-4.004-2.605-5.245-5.263-5.418c3.184-0.76,6.008-2.864,6.638-6.107
					c0.69-3.555-1.698-4.763-6.771-4.763h-6.763L101.035,155.414z M108.387,133.19h2.554c3.624,0,5.686,0.933,5.049,4.211
					c-0.362,1.863-1.623,3.381-3.468,4.175c-2.031,0.863-3.937,0.725-5.904,0.725L108.387,133.19z M106.37,143.577h1.933
					c4.176,0,6.922,1.139,6.131,5.212c-0.609,3.14-3.454,5.349-6.836,5.349h-3.278L106.37,143.577z"/>
				<path fill-rule="evenodd" clip-rule="evenodd" d="M179.545,131.396h-0.794l-15.45,24.121c0.386-0.034,0.779-0.104,1.228-0.104
					c0.414,0,0.78,0.069,1.257,0.104c1.596-3.244,3.428-6.28,5.225-9.317h8.765c0.771,3.141,1.37,6.453,1.814,9.317
					c0.593-0.034,1.193-0.104,1.849-0.104c0.586,0,1.125,0.069,1.774,0.104L179.545,131.396z M179.54,144.751h-7.592l5.477-8.834
					L179.54,144.751z"/>
				<g>
					<path fill-rule="evenodd" clip-rule="evenodd" d="M319.442,131.914c-0.49,0.034-0.953,0.104-1.366,0.104
						c-0.483,0-0.918-0.069-1.36-0.104l-10.191,8.765c-0.577,0.483-1.442,1.208-2.157,1.691c-0.398,0.275-0.908,0.414-0.903,0.207
						l2.071-10.663c-0.56,0.034-1.056,0.104-1.538,0.104c-0.519,0-1.022-0.069-1.499-0.104l-4.583,23.604
						c0.49-0.034,1.021-0.104,1.538-0.104c0.483,0,0.953,0.069,1.498,0.104l2.339-12.044c0.027-0.138,0.421-0.034,0.566,0.104
						l5.814,8.801c0.668,1,1.227,2.035,1.771,3.14c0.628-0.034,1.297-0.104,1.952-0.104c0.587,0,1.194,0.069,1.878,0.104
						l0.034-0.173l-2.125-3.45c-2.139-3.209-4.399-6.315-6.543-9.49l3.509-2.968L319.442,131.914z"/>
				</g>
				<g>
					<path fill-rule="evenodd" clip-rule="evenodd" d="M253.863,131.914c-0.352,0.034-0.676,0.104-0.986,0.104
						c-0.345,0-0.643-0.069-0.945-0.104l-3.451,17.771h-0.346l-12.94-17.771h-1.346l-4.583,23.604
						c0.316-0.034,0.641-0.104,0.986-0.104c0.311,0,0.607,0.069,0.945,0.104l3.612-18.6h0.346l11.704,16.495
						c0.57,0.793,1.1,1.622,1.386,2.104h1.035L253.863,131.914z"/>
				</g>
			</g>
		</g>
	</g>
</g>
</svg>
